<svg width="30" height="30" viewBox="0 0 30 30" fill="none" xmlns="http://www.w3.org/2000/svg">
<path d="M15 30C23.2843 30 30 23.2843 30 15C30 6.71577 23.2843 0 15 0C6.71573 0 0 6.71577 0 15C0 23.2843 6.71573 30 15 30Z" fill="white"/>
<path d="M15.4712 6.56124C15.3194 6.56937 15.165 6.63562 15.0425 6.75812C14.7981 7.00249 14.7781 7.37688 14.9987 7.59751L15.045 7.645C15.1228 7.72237 15.1788 7.81891 15.2074 7.92484C15.2359 8.03078 15.2361 8.14237 15.2077 8.24837C15.1794 8.35436 15.1236 8.45098 15.046 8.52852C14.9683 8.60606 14.8716 8.66177 14.7656 8.69C14.6596 8.71924 14.5478 8.71971 14.4416 8.69137C14.3353 8.66303 14.2386 8.6069 14.1612 8.52875L14.1587 8.52249L10.6225 12.0594L10.63 12.0669C10.7387 12.1861 10.7971 12.3427 10.793 12.5039C10.7888 12.6652 10.7225 12.8186 10.6079 12.9321C10.4933 13.0456 10.3392 13.1104 10.1779 13.1129C10.0166 13.1154 9.86061 13.0555 9.7425 12.9456L9.695 12.8994C9.47437 12.6787 9.1 12.6982 8.855 12.9432C8.61 13.1875 8.59062 13.5625 8.81125 13.7832L11.9931 16.9644C12.2137 17.1844 12.5881 17.1644 12.8331 16.9207C13.0781 16.6757 13.0975 16.3006 12.8769 16.0806L12.8331 16.0369C12.7558 15.9592 12.7001 15.8626 12.6718 15.7566C12.6435 15.6507 12.6435 15.5393 12.6718 15.4334C12.7001 15.3275 12.7557 15.2308 12.833 15.1531C12.9103 15.0754 13.0067 15.0194 13.1125 14.9907C13.3281 14.9332 13.5587 14.9969 13.7169 15.1532L14.6006 14.2688L15.2631 14.9319C15.3999 15.0689 15.5759 15.16 15.7667 15.1925C15.9575 15.2249 16.1538 15.1972 16.3281 15.1131L22.1131 20.8975C22.0551 20.9556 22.0091 21.0246 21.9777 21.1005C21.9463 21.1764 21.9302 21.2577 21.9303 21.3398C21.9303 21.422 21.9466 21.5032 21.978 21.5791C22.0095 21.6549 22.0556 21.7239 22.1137 21.7819C22.1719 21.8399 22.2408 21.8859 22.3167 21.9173C22.3926 21.9487 22.4739 21.9648 22.5561 21.9648C22.6382 21.9647 22.7195 21.9484 22.7953 21.9169C22.8712 21.8854 22.9401 21.8394 22.9981 21.7813L23.8819 20.8975C23.94 20.8395 23.9862 20.7707 24.0177 20.6948C24.0492 20.619 24.0654 20.5377 24.0654 20.4556C24.0654 20.3735 24.0492 20.2922 24.0177 20.2164C23.9862 20.1406 23.94 20.0717 23.8819 20.0138C23.8239 19.9556 23.7551 19.9095 23.6792 19.878C23.6034 19.8465 23.5221 19.8302 23.44 19.8302C23.3579 19.8302 23.2766 19.8465 23.2008 19.878C23.1249 19.9095 23.0561 19.9556 22.9981 20.0138L17.2181 14.2212L17.2131 14.2275C17.2964 14.0534 17.3236 13.8578 17.291 13.6676C17.2585 13.4775 17.1677 13.3021 17.0312 13.1656L16.3687 12.5031L17.2519 11.6194C17.1745 11.5417 17.1189 11.4451 17.0906 11.3392C17.0623 11.2333 17.0622 11.1218 17.0905 11.0159C17.1188 10.9099 17.1744 10.8133 17.2517 10.7356C17.3291 10.6579 17.4255 10.6019 17.5312 10.5731C17.6363 10.5442 17.7471 10.5435 17.8524 10.5712C17.9578 10.5988 18.054 10.6538 18.1312 10.7306L18.18 10.7794C18.4 10.9994 18.775 10.98 19.0194 10.7356C19.2644 10.4906 19.2837 10.1156 19.0631 9.89563L15.8819 6.71314C15.828 6.66022 15.7636 6.61926 15.6929 6.59298C15.6221 6.5667 15.5466 6.55629 15.4712 6.56124ZM7.1875 20.625C7.00875 20.625 6.875 20.7588 6.875 20.9375V21.875C6.52312 21.875 6.25 22.1482 6.25 22.5V23.125H13.125V22.5C13.125 22.1482 12.8519 21.875 12.5 21.875V20.9375C12.5 20.7588 12.3662 20.625 12.1875 20.625H7.1875Z" fill="#2B3749"/>
</svg>
